solid Bike Drink Thing
facet normal -0.500000000000001 -0.8660254037844383 6.216155897463968e-33
  outer loop
    vertex 65.79991608920902 63.18668782672496 20.000000000000007
    vertex 61.5792493785031 64.93494522055597 0.0
    vertex 65.79991608920902 63.18668782672496 0.0
  endloop
endfacet
facet normal -0.25881904510251985 -0.9659258262890686 0.0
  outer loop
    vertex 61.5792493785031 64.93494522055597 0.0
    vertex 65.79991608920902 63.18668782672496 20.000000000000007
    vertex 61.5792493785031 64.93494522055597 20.000000000000007
  endloop
endfacet
facet normal -0.707106781186549 -0.7071067811865461 6.216155897463964e-33
  outer loop
    vertex 69.42428475997357 60.40561193126185 20.000000000000007
    vertex 65.79991608920902 63.18668782672496 0.0
    vertex 69.42428475997357 60.40561193126185 0.0
  endloop
endfacet
facet normal -0.500000000000001 -0.8660254037844383 6.216155897463968e-33
  outer loop
    vertex 65.79991608920902 63.18668782672496 0.0
    vertex 69.42428475997357 60.40561193126185 20.000000000000007
    vertex 65.79991608920902 63.18668782672496 20.000000000000007
  endloop
endfacet
facet normal 0.2588190451025211 0.9659258262890683 0.0
  outer loop
    vertex 52.520582799914855 31.127541300438587 19.999999999999996
    vertex 57.04991608920902 30.531243260497295 0.0
    vertex 52.520582799914855 31.127541300438597 0.0
  endloop
endfacet
facet normal -3.2079995624328853e-16 1.0 0.0
  outer loop
    vertex 57.04991608920902 30.531243260497295 0.0
    vertex 52.520582799914855 31.127541300438587 19.999999999999996
    vertex 57.04991608920902 30.531243260497284 19.999999999999996
  endloop
endfacet
facet normal -3.207999562432886e-16 1.0 0.0
  outer loop
    vertex 57.04991608920902 30.531243260497284 19.999999999999996
    vertex 52.520582799914855 31.127541300438587 19.999999999999996
    vertex 55.04991608920903 30.79454825567207 19.999999999999996
  endloop
endfacet
facet normal -3.207999562432886e-16 1.0 0.0
  outer loop
    vertex 57.04991608920902 30.531243260497284 19.999999999999996
    vertex 61.5792493785031 31.127541300438597 0.0
    vertex 57.04991608920902 30.531243260497295 0.0
  endloop
endfacet
facet normal -0.2588190451025208 0.9659258262890684 0.0
  outer loop
    vertex 61.5792493785031 31.127541300438597 0.0
    vertex 57.04991608920902 30.531243260497284 19.999999999999996
    vertex 61.5792493785031 31.127541300438587 19.999999999999996
  endloop
endfacet
facet normal -0.2588190451025207 0.9659258262890684 0.0
  outer loop
    vertex 61.5792493785031 31.127541300438587 19.999999999999996
    vertex 65.79991608920898 32.875798694269605 0.0
    vertex 61.5792493785031 31.127541300438597 0.0
  endloop
endfacet
facet normal -0.4999999999999993 0.8660254037844392 0.0
  outer loop
    vertex 65.79991608920898 32.875798694269605 0.0
    vertex 61.5792493785031 31.127541300438587 19.999999999999996
    vertex 65.79991608920898 32.8757986942696 19.999999999999996
  endloop
endfacet
facet normal -0.4999999999999993 0.8660254037844392 0.0
  outer loop
    vertex 65.79991608920898 32.8757986942696 19.999999999999996
    vertex 69.42428475997357 35.656874589732695 5.639932965095795e-15
    vertex 65.79991608920898 32.875798694269605 0.0
  endloop
endfacet
facet normal -0.7071067811865468 0.7071067811865483 0.0
  outer loop
    vertex 69.42428475997357 35.656874589732695 5.639932965095795e-15
    vertex 65.79991608920898 32.8757986942696 19.999999999999996
    vertex 69.42428475997357 35.656874589732695 19.999999999999996
  endloop
endfacet
facet normal -0.866025403784438 0.5000000000000014 0.0
  outer loop
    vertex 72.20536065543668 39.28124326049727 19.999999999999996
    vertex 69.42428475997357 35.656874589732695 5.639932965095795e-15
    vertex 69.42428475997357 35.656874589732695 19.999999999999996
  endloop
endfacet
facet normal -0.7071067811865468 0.7071067811865483 0.0
  outer loop
    vertex 69.42428475997357 35.656874589732695 5.639932965095795e-15
    vertex 72.20536065543668 39.28124326049727 19.999999999999996
    vertex 72.20536065543668 39.28124326049727 5.639932965095795e-15
  endloop
endfacet
facet normal -0.965925826289068 0.258819045102522 0.0
  outer loop
    vertex 73.95361804926769 43.501909971203155 19.999999999999996
    vertex 72.20536065543668 39.28124326049727 5.639932965095795e-15
    vertex 72.20536065543668 39.28124326049727 19.999999999999996
  endloop
endfacet
facet normal -0.866025403784438 0.5000000000000014 0.0
  outer loop
    vertex 72.20536065543668 39.28124326049727 5.639932965095795e-15
    vertex 73.95361804926769 43.501909971203155 19.999999999999996
    vertex 73.95361804926769 43.50190997120316 5.639932965095795e-15
  endloop
endfacet
facet normal -1.0 5.346665937388142e-17 0.0
  outer loop
    vertex 74.54991608920902 48.03124326049728 19.999999999999996
    vertex 73.95361804926769 43.50190997120316 5.639932965095795e-15
    vertex 73.95361804926769 43.501909971203155 19.999999999999996
  endloop
endfacet
facet normal -0.965925826289068 0.25881904510252185 0.0
  outer loop
    vertex 73.95361804926769 43.50190997120316 5.639932965095795e-15
    vertex 74.54991608920902 48.03124326049728 19.999999999999996
    vertex 74.54991608920902 48.03124326049727 0.0
  endloop
endfacet
facet normal -1.0 5.346665937388142e-17 0.0
  outer loop
    vertex 74.54991608920902 48.03124326049728 19.999999999999996
    vertex 73.95361804926769 52.560576549791406 0.0
    vertex 74.54991608920902 48.03124326049727 0.0
  endloop
endfacet
facet normal -0.965925826289068 -0.25881904510252235 3.108077948731984e-33
  outer loop
    vertex 73.95361804926769 52.560576549791406 0.0
    vertex 74.54991608920902 48.03124326049728 19.999999999999996
    vertex 73.95361804926769 52.560576549791406 19.999999999999996
  endloop
endfacet
facet normal -0.8660254037844376 -0.5000000000000018 3.1080779487319794e-33
  outer loop
    vertex 72.20536065543668 56.78124326049728 20.000000000000007
    vertex 73.95361804926769 52.560576549791406 0.0
    vertex 73.95361804926769 52.560576549791406 19.999999999999996
  endloop
endfacet
facet normal -0.965925826289068 -0.25881904510252235 3.108077948731984e-33
  outer loop
    vertex 73.95361804926769 52.560576549791406 0.0
    vertex 72.20536065543668 56.78124326049728 20.000000000000007
    vertex 72.20536065543668 56.78124326049728 0.0
  endloop
endfacet
facet normal -0.707106781186549 -0.7071067811865461 6.216155897463964e-33
  outer loop
    vertex 69.42428475997357 60.40561193126185 20.000000000000007
    vertex 72.20536065543668 56.78124326049728 0.0
    vertex 72.20536065543668 56.78124326049728 20.000000000000007
  endloop
endfacet
facet normal -0.8660254037844376 -0.5000000000000019 3.108077948731982e-33
  outer loop
    vertex 72.20536065543668 56.78124326049728 0.0
    vertex 69.42428475997357 60.40561193126185 20.000000000000007
    vertex 69.42428475997357 60.40561193126185 0.0
  endloop
endfacet
facet normal 0.7071067811865474 0.7071067811865477 0.0
  outer loop
    vertex 44.67554741844443 35.656874589732716 5.639932965095795e-15
    vertex 48.299916089208985 32.875798694269605 19.999999999999996
    vertex 48.299916089208985 32.87579869426962 0.0
  endloop
endfacet
facet normal 0.5000000000000004 0.8660254037844386 0.0
  outer loop
    vertex 48.299916089208985 32.875798694269605 19.999999999999996
    vertex 44.67554741844443 35.656874589732716 5.639932965095795e-15
    vertex 44.67554741844443 35.65687458973271 19.999999999999996
  endloop
endfacet
facet normal 0.7071067811865474 0.7071067811865477 0.0
  outer loop
    vertex 44.67554741844443 35.656874589732716 5.639932965095795e-15
    vertex 41.89447152298133 39.28124326049728 19.999999999999996
    vertex 44.67554741844443 35.65687458973271 19.999999999999996
  endloop
endfacet
facet normal 0.8660254037844386 0.5000000000000003 0.0
  outer loop
    vertex 41.89447152298133 39.28124326049728 19.999999999999996
    vertex 44.67554741844443 35.656874589732716 5.639932965095795e-15
    vertex 41.89447152298133 39.28124326049729 5.639932965095795e-15
  endloop
endfacet
facet normal 0.5000000000000004 0.8660254037844386 0.0
  outer loop
    vertex 48.299916089208985 32.875798694269605 19.999999999999996
    vertex 52.520582799914855 31.127541300438597 0.0
    vertex 48.299916089208985 32.87579869426962 0.0
  endloop
endfacet
facet normal 0.25881904510252113 0.9659258262890683 0.0
  outer loop
    vertex 52.520582799914855 31.127541300438597 0.0
    vertex 48.299916089208985 32.875798694269605 19.999999999999996
    vertex 52.520582799914855 31.127541300438587 19.999999999999996
  endloop
endfacet
facet normal 0.8660254037844386 0.5000000000000003 0.0
  outer loop
    vertex 41.89447152298133 39.28124326049729 5.639932965095795e-15
    vertex 40.146214129150316 43.50190997120316 19.999999999999996
    vertex 41.89447152298133 39.28124326049728 19.999999999999996
  endloop
endfacet
facet normal 0.9659258262890682 0.2588190451025209 0.0
  outer loop
    vertex 40.146214129150316 43.50190997120316 19.999999999999996
    vertex 41.89447152298133 39.28124326049729 5.639932965095795e-15
    vertex 40.146214129150316 43.50190997120316 5.639932965095795e-15
  endloop
endfacet
facet normal 0.0 0.0 -1.0
  outer loop
    vertex 37.22343184264792 53.34373370311174 0.0
    vertex 37.22343184264792 42.71875281788287 5.639932965095795e-15
    vertex 36.524029207468544 48.03124326049727 0.0
  endloop
endfacet
facet normal 0.0 0.0 -1.0
  outer loop
    vertex 37.22343184264792 42.71875281788287 5.639932965095795e-15
    vertex 37.22343184264792 53.34373370311174 0.0
    vertex 39.27397661441601 58.29418670136752 0.0
  endloop
endfacet
facet normal 0.0 0.0 -1.0
  outer loop
    vertex 37.22343184264792 42.71875281788287 5.639932965095795e-15
    vertex 39.27397661441601 58.29418670136752 0.0
    vertex 39.27397661441605 37.768299819627046 5.639932965095795e-15
  endloop
endfacet
facet normal 0.0 0.0 -1.0
  outer loop
    vertex 39.27397661441605 37.768299819627046 5.639932965095795e-15
    vertex 39.27397661441601 58.29418670136752 0.0
    vertex 39.549916089208985 48.03124326049727 0.0
  endloop
endfacet
facet normal 0.0 0.0 -1.0
  outer loop
    vertex 39.549916089208985 48.03124326049727 0.0
    vertex 39.27397661441601 58.29418670136752 0.0
    vertex 40.146214129150316 52.560576549791406 0.0
  endloop
endfacet
facet normal 0.0 0.0 -1.0
  outer loop
    vertex 40.146214129150316 52.560576549791406 0.0
    vertex 39.27397661441601 58.29418670136752 0.0
    vertex 42.53592228526232 62.54523706444396 0.0
  endloop
endfacet
facet normal 0.0 0.0 -1.0
  outer loop
    vertex 40.146214129150316 52.560576549791406 0.0
    vertex 42.53592228526232 62.54523706444396 0.0
    vertex 41.89447152298133 56.781243260497305 0.0
  endloop
endfacet
facet normal 0.0 0.0 -1.0
  outer loop
    vertex 41.89447152298133 56.781243260497305 0.0
    vertex 42.53592228526232 62.54523706444396 0.0
    vertex 44.67554741844443 60.40561193126185 0.0
  endloop
endfacet
facet normal 0.0 0.0 -1.0
  outer loop
    vertex 44.67554741844443 60.40561193126185 0.0
    vertex 42.53592228526232 62.54523706444396 0.0
    vertex 46.78697264833878 65.80718273529025 0.0
  endloop
endfacet
facet normal 0.0 0.0 -1.0
  outer loop
    vertex 44.67554741844443 60.40561193126185 0.0
    vertex 46.78697264833878 65.80718273529025 0.0
    vertex 48.29991608920903 63.18668782672496 0.0
  endloop
endfacet
facet normal 0.0 0.0 -1.0
  outer loop
    vertex 48.29991608920903 63.18668782672496 0.0
    vertex 46.78697264833878 65.80718273529025 0.0
    vertex 51.73742564659461 67.85772750705837 0.0
  endloop
endfacet
facet normal 0.0 0.0 -1.0
  outer loop
    vertex 48.29991608920903 63.18668782672496 0.0
    vertex 51.73742564659461 67.85772750705837 0.0
    vertex 52.520582799914905 64.93494522055597 0.0
  endloop
endfacet
facet normal 0.0 0.0 -1.0
  outer loop
    vertex 52.520582799914905 64.93494522055597 0.0
    vertex 51.73742564659461 67.85772750705837 0.0
    vertex 57.04991608920902 68.55713014223771 0.0
  endloop
endfacet
facet normal 0.0 0.0 -1.0
  outer loop
    vertex 52.520582799914905 64.93494522055597 0.0
    vertex 57.04991608920902 68.55713014223771 0.0
    vertex 57.04991608920902 65.53124326049728 0.0
  endloop
endfacet
facet normal 0.0 0.0 -1.0
  outer loop
    vertex 57.04991608920902 65.53124326049728 0.0
    vertex 57.04991608920902 68.55713014223771 0.0
    vertex 62.36240653182343 67.85772750705837 0.0
  endloop
endfacet
facet normal 0.0 0.0 -1.0
  outer loop
    vertex 57.04991608920902 65.53124326049728 0.0
    vertex 62.36240653182343 67.85772750705837 0.0
    vertex 61.5792493785031 64.93494522055597 0.0
  endloop
endfacet
facet normal 0.0 0.0 -1.0
  outer loop
    vertex 61.5792493785031 64.93494522055597 0.0
    vertex 62.36240653182343 67.85772750705837 0.0
    vertex 65.79991608920902 63.18668782672496 0.0
  endloop
endfacet
facet normal 0.0 0.0 -1.0
  outer loop
    vertex 65.79991608920902 63.18668782672496 0.0
    vertex 62.36240653182343 67.85772750705837 0.0
    vertex 67.31285953007922 65.80718273529028 0.0
  endloop
endfacet
facet normal 0.0 0.0 -1.0
  outer loop
    vertex 65.79991608920902 63.18668782672496 0.0
    vertex 67.31285953007922 65.80718273529028 0.0
    vertex 69.42428475997357 60.40561193126185 0.0
  endloop
endfacet
facet normal 0.0 0.0 -1.0
  outer loop
    vertex 69.42428475997357 60.40561193126185 0.0
    vertex 67.31285953007922 65.80718273529028 0.0
    vertex 71.56390989315568 62.54523706444394 0.0
  endloop
endfacet
facet normal 0.0 0.0 -1.0
  outer loop
    vertex 69.42428475997357 60.40561193126185 0.0
    vertex 71.56390989315568 62.54523706444394 0.0
    vertex 72.20536065543668 56.78124326049728 0.0
  endloop
endfacet
facet normal 0.0 0.0 -1.0
  outer loop
    vertex 72.20536065543668 56.78124326049728 0.0
    vertex 71.56390989315568 62.54523706444394 0.0
    vertex 74.825855564002 58.2941867013675 0.0
  endloop
endfacet
facet normal 0.0 0.0 -1.0
  outer loop
    vertex 72.20536065543668 56.78124326049728 0.0
    vertex 74.825855564002 58.2941867013675 0.0
    vertex 73.95361804926769 52.560576549791406 0.0
  endloop
endfacet
facet normal 0.0 0.0 -1.0
  outer loop
    vertex 73.95361804926769 52.560576549791406 0.0
    vertex 74.825855564002 58.2941867013675 0.0
    vertex 74.54991608920902 48.03124326049727 0.0
  endloop
endfacet
facet normal 0.0 0.0 -1.0
  outer loop
    vertex 39.27397661441605 37.768299819627046 5.639932965095795e-15
    vertex 40.146214129150316 43.50190997120316 5.639932965095795e-15
    vertex 42.53592228526232 33.51724945655063 0.0
  endloop
endfacet
facet normal 0.0 0.0 -1.0
  outer loop
    vertex 40.146214129150316 43.50190997120316 5.639932965095795e-15
    vertex 39.27397661441605 37.768299819627046 5.639932965095795e-15
    vertex 39.549916089208985 48.03124326049727 0.0
  endloop
endfacet
facet normal 0.0 0.0 -1.0
  outer loop
    vertex 42.53592228526232 33.51724945655063 0.0
    vertex 40.146214129150316 43.50190997120316 5.639932965095795e-15
    vertex 41.89447152298133 39.28124326049729 5.639932965095795e-15
  endloop
endfacet
facet normal 0.0 0.0 -1.0
  outer loop
    vertex 42.53592228526232 33.51724945655063 0.0
    vertex 41.89447152298133 39.28124326049729 5.639932965095795e-15
    vertex 44.67554741844443 35.656874589732716 5.639932965095795e-15
  endloop
endfacet
facet normal 0.0 0.0 -1.0
  outer loop
    vertex 42.53592228526232 33.51724945655063 0.0
    vertex 44.67554741844443 35.656874589732716 5.639932965095795e-15
    vertex 46.78697264833878 30.2553037857043 0.0
  endloop
endfacet
facet normal 0.0 0.0 -1.0
  outer loop
    vertex 46.78697264833878 30.2553037857043 0.0
    vertex 44.67554741844443 35.656874589732716 5.639932965095795e-15
    vertex 48.299916089208985 32.87579869426962 0.0
  endloop
endfacet
facet normal 0.0 0.0 -1.0
  outer loop
    vertex 46.78697264833878 30.2553037857043 0.0
    vertex 48.299916089208985 32.87579869426962 0.0
    vertex 51.737425646594524 28.2047590139362 0.0
  endloop
endfacet
facet normal 0.0 0.0 -1.0
  outer loop
    vertex 51.737425646594524 28.2047590139362 0.0
    vertex 48.299916089208985 32.87579869426962 0.0
    vertex 52.520582799914855 31.127541300438597 0.0
  endloop
endfacet
facet normal 0.0 0.0 -1.0
  outer loop
    vertex 51.737425646594524 28.2047590139362 0.0
    vertex 52.520582799914855 31.127541300438597 0.0
    vertex 57.04991608920898 27.50535637875683 0.0
  endloop
endfacet
facet normal 0.0 0.0 -1.0
  outer loop
    vertex 57.04991608920898 27.50535637875683 0.0
    vertex 52.520582799914855 31.127541300438597 0.0
    vertex 57.04991608920902 30.531243260497295 0.0
  endloop
endfacet
facet normal 0.0 0.0 -1.0
  outer loop
    vertex 57.04991608920898 27.50535637875683 0.0
    vertex 57.04991608920902 30.531243260497295 0.0
    vertex 62.36240653182339 28.204759013936176 0.0
  endloop
endfacet
facet normal 0.0 0.0 -1.0
  outer loop
    vertex 62.36240653182339 28.204759013936176 0.0
    vertex 57.04991608920902 30.531243260497295 0.0
    vertex 61.5792493785031 31.127541300438597 0.0
  endloop
endfacet
facet normal 0.0 0.0 -1.0
  outer loop
    vertex 62.36240653182339 28.204759013936176 0.0
    vertex 61.5792493785031 31.127541300438597 0.0
    vertex 65.79991608920898 32.875798694269605 0.0
  endloop
endfacet
facet normal 0.0 0.0 -1.0
  outer loop
    vertex 62.36240653182339 28.204759013936176 0.0
    vertex 65.79991608920898 32.875798694269605 0.0
    vertex 67.31285953007927 30.25530378570432 0.0
  endloop
endfacet
facet normal 0.0 0.0 -1.0
  outer loop
    vertex 67.31285953007927 30.25530378570432 0.0
    vertex 65.79991608920898 32.875798694269605 0.0
    vertex 69.42428475997357 35.656874589732695 5.639932965095795e-15
  endloop
endfacet
facet normal 0.0 0.0 -1.0
  outer loop
    vertex 67.31285953007927 30.25530378570432 0.0
    vertex 69.42428475997357 35.656874589732695 5.639932965095795e-15
    vertex 71.56390989315562 33.51724945655059 0.0
  endloop
endfacet
facet normal 0.0 0.0 -1.0
  outer loop
    vertex 71.56390989315562 33.51724945655059 0.0
    vertex 69.42428475997357 35.656874589732695 5.639932965095795e-15
    vertex 72.20536065543668 39.28124326049727 5.639932965095795e-15
  endloop
endfacet
facet normal 0.0 0.0 -1.0
  outer loop
    vertex 71.56390989315562 33.51724945655059 0.0
    vertex 72.20536065543668 39.28124326049727 5.639932965095795e-15
    vertex 74.825855564002 37.768299819627046 5.639932965095795e-15
  endloop
endfacet
facet normal 0.0 0.0 -1.0
  outer loop
    vertex 74.825855564002 37.768299819627046 5.639932965095795e-15
    vertex 72.20536065543668 39.28124326049727 5.639932965095795e-15
    vertex 73.95361804926769 43.50190997120316 5.639932965095795e-15
  endloop
endfacet
facet normal 0.0 0.0 -1.0
  outer loop
    vertex 74.825855564002 37.768299819627046 5.639932965095795e-15
    vertex 73.95361804926769 43.50190997120316 5.639932965095795e-15
    vertex 74.54991608920902 48.03124326049727 0.0
  endloop
endfacet
facet normal 0.0 0.0 -1.0
  outer loop
    vertex 74.825855564002 37.768299819627046 5.639932965095795e-15
    vertex 74.54991608920902 48.03124326049727 0.0
    vertex 74.825855564002 58.2941867013675 0.0
  endloop
endfacet
facet normal 0.0 0.0 -1.0
  outer loop
    vertex 74.825855564002 37.768299819627046 5.639932965095795e-15
    vertex 74.825855564002 58.2941867013675 0.0
    vertex 76.87640033577009 53.34373370311174 0.0
  endloop
endfacet
facet normal 0.0 0.0 -1.0
  outer loop
    vertex 74.825855564002 37.768299819627046 5.639932965095795e-15
    vertex 76.87640033577009 53.34373370311174 0.0
    vertex 76.87640033577009 42.71875281788283 5.639932965095795e-15
  endloop
endfacet
facet normal 0.0 0.0 -1.0
  outer loop
    vertex 76.87640033577009 42.71875281788283 5.639932965095795e-15
    vertex 76.87640033577009 53.34373370311174 0.0
    vertex 77.57580297094945 48.03124326049727 0.0
  endloop
endfacet
facet normal 1.0 2.0495552759987889e-16 0.0
  outer loop
    vertex 39.549916089208985 48.03124326049727 0.0
    vertex 40.146214129150316 43.50190997120316 19.999999999999996
    vertex 40.146214129150316 43.50190997120316 5.639932965095795e-15
  endloop
endfacet
facet normal 0.9659258262890682 0.2588190451025209 0.0
  outer loop
    vertex 40.146214129150316 43.50190997120316 19.999999999999996
    vertex 39.549916089208985 48.03124326049727 0.0
    vertex 39.549916089208985 48.03124326049728 19.999999999999996
  endloop
endfacet
facet normal 0.9659258262890684 -0.2588190451025203 0.0
  outer loop
    vertex 40.146214129150316 52.560576549791406 0.0
    vertex 39.549916089208985 48.03124326049728 19.999999999999996
    vertex 39.549916089208985 48.03124326049727 0.0
  endloop
endfacet
facet normal 1.0 2.0495552759987879e-16 0.0
  outer loop
    vertex 39.549916089208985 48.03124326049728 19.999999999999996
    vertex 40.146214129150316 52.560576549791406 0.0
    vertex 40.146214129150316 52.560576549791406 19.999999999999996
  endloop
endfacet
facet normal 0.8660254037844375 -0.5000000000000021 0.0
  outer loop
    vertex 41.89447152298133 56.781243260497305 0.0
    vertex 40.146214129150316 52.560576549791406 19.999999999999996
    vertex 40.146214129150316 52.560576549791406 0.0
  endloop
endfacet
facet normal 0.9659258262890684 -0.25881904510252035 0.0
  outer loop
    vertex 40.146214129150316 52.560576549791406 19.999999999999996
    vertex 41.89447152298133 56.781243260497305 0.0
    vertex 41.89447152298133 56.781243260497305 20.000000000000007
  endloop
endfacet
facet normal 0.7071067811865467 -0.7071067811865483 0.0
  outer loop
    vertex 44.67554741844443 60.40561193126185 0.0
    vertex 41.89447152298133 56.781243260497305 20.000000000000007
    vertex 41.89447152298133 56.781243260497305 0.0
  endloop
endfacet
facet normal 0.8660254037844375 -0.5000000000000022 0.0
  outer loop
    vertex 41.89447152298133 56.781243260497305 20.000000000000007
    vertex 44.67554741844443 60.40561193126185 0.0
    vertex 44.67554741844443 60.40561193126185 20.000000000000007
  endloop
endfacet
facet normal 0.5000000000000003 -0.8660254037844385 0.0
  outer loop
    vertex 48.29991608920903 63.18668782672496 20.000000000000007
    vertex 44.67554741844443 60.40561193126185 0.0
    vertex 48.29991608920903 63.18668782672496 0.0
  endloop
endfacet
facet normal 0.7071067811865467 -0.7071067811865483 0.0
  outer loop
    vertex 44.67554741844443 60.40561193126185 0.0
    vertex 48.29991608920903 63.18668782672496 20.000000000000007
    vertex 44.67554741844443 60.40561193126185 20.000000000000007
  endloop
endfacet
facet normal 0.25881904510251985 -0.9659258262890686 0.0
  outer loop
    vertex 52.520582799914905 64.93494522055597 20.000000000000007
    vertex 48.29991608920903 63.18668782672496 0.0
    vertex 52.520582799914905 64.93494522055597 0.0
  endloop
endfacet
facet normal 0.5000000000000003 -0.8660254037844385 0.0
  outer loop
    vertex 48.29991608920903 63.18668782672496 0.0
    vertex 52.520582799914905 64.93494522055597 20.000000000000007
    vertex 48.29991608920903 63.18668782672496 20.000000000000007
  endloop
endfacet
facet normal 0.0 -1.0 0.0
  outer loop
    vertex 57.04991608920902 65.53124326049728 20.000000000000007
    vertex 52.520582799914905 64.93494522055597 0.0
    vertex 57.04991608920902 65.53124326049728 0.0
  endloop
endfacet
facet normal 0.25881904510251985 -0.9659258262890686 0.0
  outer loop
    vertex 52.520582799914905 64.93494522055597 0.0
    vertex 57.04991608920902 65.53124326049728 20.000000000000007
    vertex 52.520582799914905 64.93494522055597 20.000000000000007
  endloop
endfacet
facet normal -0.25881904510251985 -0.9659258262890686 0.0
  outer loop
    vertex 61.5792493785031 64.93494522055597 20.000000000000007
    vertex 57.04991608920902 65.53124326049728 0.0
    vertex 61.5792493785031 64.93494522055597 0.0
  endloop
endfacet
facet normal 0.0 -1.0 0.0
  outer loop
    vertex 57.04991608920902 65.53124326049728 0.0
    vertex 61.5792493785031 64.93494522055597 20.000000000000007
    vertex 57.04991608920902 65.53124326049728 20.000000000000007
  endloop
endfacet
facet normal -0.4999999999999989 0.8660254037844394 0.0
  outer loop
    vertex 46.78697264833878 65.80718273529025 20.000000000000007
    vertex 51.73742564659461 67.85772750705837 0.0
    vertex 46.78697264833878 65.80718273529025 0.0
  endloop
endfacet
facet normal -0.25881904510251913 0.9659258262890688 0.0
  outer loop
    vertex 51.73742564659461 67.85772750705837 0.0
    vertex 46.78697264833878 65.80718273529025 20.000000000000007
    vertex 51.73742564659461 67.85772750705837 20.000000000000007
  endloop
endfacet
facet normal -0.7071067811865466 0.7071067811865485 0.0
  outer loop
    vertex 42.53592228526232 62.54523706444396 20.000000000000007
    vertex 46.78697264833878 65.80718273529025 0.0
    vertex 42.53592228526232 62.54523706444396 0.0
  endloop
endfacet
facet normal -0.4999999999999989 0.8660254037844394 0.0
  outer loop
    vertex 46.78697264833878 65.80718273529025 0.0
    vertex 42.53592228526232 62.54523706444396 20.000000000000007
    vertex 46.78697264833878 65.80718273529025 20.000000000000007
  endloop
endfacet
facet normal -0.7071067811865466 0.7071067811865485 0.0
  outer loop
    vertex 42.53592228526232 62.54523706444396 20.000000000000007
    vertex 39.27397661441601 58.29418670136752 0.0
    vertex 39.27397661441601 58.29418670136752 20.000000000000007
  endloop
endfacet
facet normal -0.8660254037844376 0.5000000000000018 0.0
  outer loop
    vertex 39.27397661441601 58.29418670136752 0.0
    vertex 42.53592228526232 62.54523706444396 20.000000000000007
    vertex 42.53592228526232 62.54523706444396 0.0
  endloop
endfacet
facet normal -0.8660254037844377 0.5000000000000019 0.0
  outer loop
    vertex 39.27397661441601 58.29418670136752 20.000000000000007
    vertex 37.22343184264792 53.34373370311174 0.0
    vertex 37.22343184264792 53.34373370311174 19.999999999999996
  endloop
endfacet
facet normal -0.9659258262890681 0.2588190451025214 -1.5540389743659914e-33
  outer loop
    vertex 37.22343184264792 53.34373370311174 0.0
    vertex 39.27397661441601 58.29418670136752 20.000000000000007
    vertex 39.27397661441601 58.29418670136752 0.0
  endloop
endfacet
facet normal -1.0 -5.346665937388142e-17 -1.5540389743659914e-33
  outer loop
    vertex 36.524029207468544 48.03124326049728 19.999999999999996
    vertex 37.22343184264792 53.34373370311174 0.0
    vertex 36.524029207468544 48.03124326049727 0.0
  endloop
endfacet
facet normal -0.9659258262890681 0.2588190451025214 -1.5540389743659914e-33
  outer loop
    vertex 37.22343184264792 53.34373370311174 0.0
    vertex 36.524029207468544 48.03124326049728 19.999999999999996
    vertex 37.22343184264792 53.34373370311174 19.999999999999996
  endloop
endfacet
facet normal -1.0 -5.346665937388142e-17 -1.5540389743659914e-33
  outer loop
    vertex 36.524029207468544 48.03124326049728 19.999999999999996
    vertex 37.22343184264792 42.71875281788287 5.639932965095795e-15
    vertex 37.22343184264792 42.718752817882866 19.999999999999996
  endloop
endfacet
facet normal -0.9659258262890682 -0.2588190451025213 0.0
  outer loop
    vertex 37.22343184264792 42.71875281788287 5.639932965095795e-15
    vertex 36.524029207468544 48.03124326049728 19.999999999999996
    vertex 36.524029207468544 48.03124326049727 0.0
  endloop
endfacet
facet normal -0.9659258262890681 -0.25881904510252135 0.0
  outer loop
    vertex 37.22343184264792 42.718752817882866 19.999999999999996
    vertex 39.27397661441605 37.768299819627046 5.639932965095795e-15
    vertex 39.27397661441605 37.76829981962703 19.999999999999996
  endloop
endfacet
facet normal -0.8660254037844387 -0.5000000000000001 -6.216155897463964e-33
  outer loop
    vertex 39.27397661441605 37.768299819627046 5.639932965095795e-15
    vertex 37.22343184264792 42.718752817882866 19.999999999999996
    vertex 37.22343184264792 42.71875281788287 5.639932965095795e-15
  endloop
endfacet
facet normal -0.8660254037844388 -0.5000000000000001 -6.216155897463966e-33
  outer loop
    vertex 39.27397661441605 37.76829981962703 19.999999999999996
    vertex 42.53592228526232 33.51724945655063 0.0
    vertex 42.53592228526232 33.51724945655062 19.999999999999996
  endloop
endfacet
facet normal -0.7071067811865479 -0.7071067811865472 -6.216155897463966e-33
  outer loop
    vertex 42.53592228526232 33.51724945655063 0.0
    vertex 39.27397661441605 37.76829981962703 19.999999999999996
    vertex 39.27397661441605 37.768299819627046 5.639932965095795e-15
  endloop
endfacet
facet normal -0.5000000000000004 -0.8660254037844386 0.0
  outer loop
    vertex 46.78697264833878 30.25530378570429 19.999999999999996
    vertex 42.53592228526232 33.51724945655063 0.0
    vertex 46.78697264833878 30.2553037857043 0.0
  endloop
endfacet
facet normal -0.7071067811865479 -0.7071067811865472 -6.216155897463966e-33
  outer loop
    vertex 42.53592228526232 33.51724945655063 0.0
    vertex 46.78697264833878 30.25530378570429 19.999999999999996
    vertex 42.53592228526232 33.51724945655062 19.999999999999996
  endloop
endfacet
facet normal -0.25881904510252224 -0.9659258262890679 0.0
  outer loop
    vertex 51.737425646594524 28.204759013936187 19.999999999999996
    vertex 46.78697264833878 30.2553037857043 0.0
    vertex 51.737425646594524 28.2047590139362 0.0
  endloop
endfacet
facet normal -0.5000000000000004 -0.8660254037844386 0.0
  outer loop
    vertex 46.78697264833878 30.2553037857043 0.0
    vertex 51.737425646594524 28.204759013936187 19.999999999999996
    vertex 46.78697264833878 30.25530378570429 19.999999999999996
  endloop
endfacet
facet normal -1.6841997702772648e-15 -1.0 0.0
  outer loop
    vertex 57.04991608920898 27.50535637875682 19.999999999999996
    vertex 51.737425646594524 28.2047590139362 0.0
    vertex 57.04991608920898 27.50535637875683 0.0
  endloop
endfacet
facet normal -0.25881904510252224 -0.9659258262890679 0.0
  outer loop
    vertex 51.737425646594524 28.2047590139362 0.0
    vertex 57.04991608920898 27.50535637875682 19.999999999999996
    vertex 51.737425646594524 28.204759013936187 19.999999999999996
  endloop
endfacet
facet normal -0.25881904510252224 -0.9659258262890679 0.0
  outer loop
    vertex 51.737425646594524 28.204759013936187 19.999999999999996
    vertex 57.04991608920898 27.50535637875682 19.999999999999996
    vertex 55.04991608920903 27.768661373931607 19.999999999999996
  endloop
endfacet
facet normal 0.258819045102521 -0.9659258262890683 0.0
  outer loop
    vertex 62.36240653182339 28.204759013936165 19.999999999999996
    vertex 57.04991608920898 27.50535637875683 0.0
    vertex 62.36240653182339 28.204759013936176 0.0
  endloop
endfacet
facet normal -1.684199770277265e-15 -1.0 0.0
  outer loop
    vertex 57.04991608920898 27.50535637875683 0.0
    vertex 62.36240653182339 28.204759013936165 19.999999999999996
    vertex 57.04991608920898 27.50535637875682 19.999999999999996
  endloop
endfacet
facet normal 0.5000000000000003 -0.8660254037844385 0.0
  outer loop
    vertex 67.31285953007927 30.25530378570431 19.999999999999996
    vertex 62.36240653182339 28.204759013936176 0.0
    vertex 67.31285953007927 30.25530378570432 0.0
  endloop
endfacet
facet normal 0.2588190451025211 -0.9659258262890683 0.0
  outer loop
    vertex 62.36240653182339 28.204759013936176 0.0
    vertex 67.31285953007927 30.25530378570431 19.999999999999996
    vertex 62.36240653182339 28.204759013936165 19.999999999999996
  endloop
endfacet
facet normal 0.7071067811865468 -0.7071067811865482 0.0
  outer loop
    vertex 71.56390989315562 33.51724945655057 19.999999999999996
    vertex 67.31285953007927 30.25530378570432 0.0
    vertex 71.56390989315562 33.51724945655059 0.0
  endloop
endfacet
facet normal 0.5000000000000004 -0.8660254037844385 0.0
  outer loop
    vertex 67.31285953007927 30.25530378570432 0.0
    vertex 71.56390989315562 33.51724945655057 19.999999999999996
    vertex 67.31285953007927 30.25530378570431 19.999999999999996
  endloop
endfacet
facet normal 0.7071067811865468 -0.7071067811865482 0.0
  outer loop
    vertex 71.56390989315562 33.51724945655059 0.0
    vertex 74.825855564002 37.768299819627046 19.999999999999996
    vertex 71.56390989315562 33.51724945655057 19.999999999999996
  endloop
endfacet
facet normal 0.866025403784438 -0.5000000000000014 0.0
  outer loop
    vertex 74.825855564002 37.768299819627046 19.999999999999996
    vertex 71.56390989315562 33.51724945655059 0.0
    vertex 74.825855564002 37.768299819627046 5.639932965095795e-15
  endloop
endfacet
facet normal 0.9659258262890681 -0.2588190451025218 0.0
  outer loop
    vertex 76.87640033577009 42.71875281788283 5.639932965095795e-15
    vertex 74.825855564002 37.768299819627046 19.999999999999996
    vertex 74.825855564002 37.768299819627046 5.639932965095795e-15
  endloop
endfacet
facet normal 0.866025403784438 -0.5000000000000014 0.0
  outer loop
    vertex 74.825855564002 37.768299819627046 19.999999999999996
    vertex 76.87640033577009 42.71875281788283 5.639932965095795e-15
    vertex 76.87640033577009 42.718752817882816 19.999999999999996
  endloop
endfacet
facet normal 0.9659258262890681 -0.2588190451025218 0.0
  outer loop
    vertex 76.87640033577009 42.71875281788283 5.639932965095795e-15
    vertex 77.57580297094945 48.03124326049728 19.999999999999996
    vertex 76.87640033577009 42.718752817882816 19.999999999999996
  endloop
endfacet
facet normal 1.0 -4.455554947823452e-17 0.0
  outer loop
    vertex 77.57580297094945 48.03124326049728 19.999999999999996
    vertex 76.87640033577009 42.71875281788283 5.639932965095795e-15
    vertex 77.57580297094945 48.03124326049727 0.0
  endloop
endfacet
facet normal 0.965925826289068 0.2588190451025222 -3.108077948731984e-33
  outer loop
    vertex 76.87640033577009 53.34373370311174 0.0
    vertex 77.57580297094945 48.03124326049728 19.999999999999996
    vertex 77.57580297094945 48.03124326049727 0.0
  endloop
endfacet
facet normal 1.0 -4.455554947823452e-17 0.0
  outer loop
    vertex 77.57580297094945 48.03124326049728 19.999999999999996
    vertex 76.87640033577009 53.34373370311174 0.0
    vertex 76.87640033577009 53.34373370311174 19.999999999999996
  endloop
endfacet
facet normal 0.866025403784438 0.5000000000000013 -3.1080779487319814e-33
  outer loop
    vertex 74.825855564002 58.2941867013675 0.0
    vertex 76.87640033577009 53.34373370311174 19.999999999999996
    vertex 76.87640033577009 53.34373370311174 0.0
  endloop
endfacet
facet normal 0.965925826289068 0.2588190451025223 -3.108077948731986e-33
  outer loop
    vertex 76.87640033577009 53.34373370311174 19.999999999999996
    vertex 74.825855564002 58.2941867013675 0.0
    vertex 74.825855564002 58.2941867013675 20.000000000000007
  endloop
endfacet
facet normal 0.707106781186549 0.7071067811865461 0.0
  outer loop
    vertex 71.56390989315568 62.54523706444394 0.0
    vertex 74.825855564002 58.2941867013675 20.000000000000007
    vertex 74.825855564002 58.2941867013675 0.0
  endloop
endfacet
facet normal 0.8660254037844379 0.5000000000000013 -3.1080779487319794e-33
  outer loop
    vertex 74.825855564002 58.2941867013675 20.000000000000007
    vertex 71.56390989315568 62.54523706444394 0.0
    vertex 71.56390989315568 62.54523706444394 20.000000000000007
  endloop
endfacet
facet normal 0.5000000000000008 0.8660254037844384 0.0
  outer loop
    vertex 67.31285953007922 65.80718273529028 20.000000000000007
    vertex 71.56390989315568 62.54523706444394 0.0
    vertex 67.31285953007922 65.80718273529028 0.0
  endloop
endfacet
facet normal 0.707106781186549 0.7071067811865461 0.0
  outer loop
    vertex 71.56390989315568 62.54523706444394 0.0
    vertex 67.31285953007922 65.80718273529028 20.000000000000007
    vertex 71.56390989315568 62.54523706444394 20.000000000000007
  endloop
endfacet
facet normal 0.2588190451025189 0.965925826289069 0.0
  outer loop
    vertex 62.36240653182343 67.85772750705837 20.000000000000007
    vertex 67.31285953007922 65.80718273529028 0.0
    vertex 62.36240653182343 67.85772750705837 0.0
  endloop
endfacet
facet normal 0.5000000000000008 0.8660254037844384 0.0
  outer loop
    vertex 67.31285953007922 65.80718273529028 0.0
    vertex 62.36240653182343 67.85772750705837 20.000000000000007
    vertex 67.31285953007922 65.80718273529028 20.000000000000007
  endloop
endfacet
facet normal -4.1882216509540437e-16 1.0 0.0
  outer loop
    vertex 57.04991608920902 68.55713014223771 20.000000000000007
    vertex 62.36240653182343 67.85772750705837 0.0
    vertex 57.04991608920902 68.55713014223771 0.0
  endloop
endfacet
facet normal 0.2588190451025189 0.965925826289069 0.0
  outer loop
    vertex 62.36240653182343 67.85772750705837 0.0
    vertex 57.04991608920902 68.55713014223771 20.000000000000007
    vertex 62.36240653182343 67.85772750705837 20.000000000000007
  endloop
endfacet
facet normal -0.25881904510251913 0.9659258262890688 0.0
  outer loop
    vertex 51.73742564659461 67.85772750705837 20.000000000000007
    vertex 57.04991608920902 68.55713014223771 0.0
    vertex 51.73742564659461 67.85772750705837 0.0
  endloop
endfacet
facet normal -4.1882216509540437e-16 1.0 0.0
  outer loop
    vertex 57.04991608920902 68.55713014223771 0.0
    vertex 51.73742564659461 67.85772750705837 20.000000000000007
    vertex 57.04991608920902 68.55713014223771 20.000000000000007
  endloop
endfacet
facet normal 0.0 0.0 1.0
  outer loop
    vertex 57.04991608920898 27.50535637875682 19.999999999999996
    vertex 55.04991608920903 30.531243260497284 19.999999999999996
    vertex 55.04991608920903 27.768661373931607 19.999999999999996
  endloop
endfacet
facet normal 0.0 0.0 1.0
  outer loop
    vertex 55.04991608920903 30.531243260497284 19.999999999999996
    vertex 57.04991608920898 27.50535637875682 19.999999999999996
    vertex 57.04991608920902 30.531243260497284 19.999999999999996
  endloop
endfacet
facet normal 0.0 0.0 1.0
  outer loop
    vertex 57.04991608920902 30.531243260497284 19.999999999999996
    vertex 55.04991608920903 30.79454825567207 19.999999999999996
    vertex 55.04991608920903 30.531243260497284 19.999999999999996
  endloop
endfacet
facet normal 1.24767557064271e-18 -3.3608285467825057e-16 1.0
  outer loop
    vertex 39.27397661441605 37.76829981962703 19.999999999999996
    vertex 40.146214129150316 43.50190997120316 19.999999999999996
    vertex 39.549916089208985 48.03124326049728 19.999999999999996
  endloop
endfacet
facet normal 1.24767557064271e-18 -3.3608285467825057e-16 1.0
  outer loop
    vertex 40.146214129150316 43.50190997120316 19.999999999999996
    vertex 39.27397661441605 37.76829981962703 19.999999999999996
    vertex 42.53592228526232 33.51724945655062 19.999999999999996
  endloop
endfacet
facet normal 1.24767557064271e-18 -3.3608285467825057e-16 1.0
  outer loop
    vertex 40.146214129150316 43.50190997120316 19.999999999999996
    vertex 42.53592228526232 33.51724945655062 19.999999999999996
    vertex 41.89447152298133 39.28124326049728 19.999999999999996
  endloop
endfacet
facet normal 1.24767557064271e-18 -3.3608285467825057e-16 1.0
  outer loop
    vertex 41.89447152298133 39.28124326049728 19.999999999999996
    vertex 42.53592228526232 33.51724945655062 19.999999999999996
    vertex 44.67554741844443 35.65687458973271 19.999999999999996
  endloop
endfacet
facet normal 1.24767557064271e-18 -3.3608285467825057e-16 1.0
  outer loop
    vertex 44.67554741844443 35.65687458973271 19.999999999999996
    vertex 42.53592228526232 33.51724945655062 19.999999999999996
    vertex 46.78697264833878 30.25530378570429 19.999999999999996
  endloop
endfacet
facet normal 1.24767557064271e-18 -3.3608285467825057e-16 1.0
  outer loop
    vertex 44.67554741844443 35.65687458973271 19.999999999999996
    vertex 46.78697264833878 30.25530378570429 19.999999999999996
    vertex 48.299916089208985 32.875798694269605 19.999999999999996
  endloop
endfacet
facet normal 1.24767557064271e-18 -3.3608285467825057e-16 1.0
  outer loop
    vertex 48.299916089208985 32.875798694269605 19.999999999999996
    vertex 46.78697264833878 30.25530378570429 19.999999999999996
    vertex 51.737425646594524 28.204759013936187 19.999999999999996
  endloop
endfacet
facet normal 1.24767557064271e-18 -3.3608285467825057e-16 1.0
  outer loop
    vertex 48.299916089208985 32.875798694269605 19.999999999999996
    vertex 51.737425646594524 28.204759013936187 19.999999999999996
    vertex 52.520582799914855 31.127541300438587 19.999999999999996
  endloop
endfacet
facet normal 1.24767557064271e-18 -3.3608285467825057e-16 1.0
  outer loop
    vertex 52.520582799914855 31.127541300438587 19.999999999999996
    vertex 51.737425646594524 28.204759013936187 19.999999999999996
    vertex 55.04991608920903 27.768661373931607 19.999999999999996
  endloop
endfacet
facet normal 1.24767557064271e-18 -3.3608285467825057e-16 1.0
  outer loop
    vertex 52.520582799914855 31.127541300438587 19.999999999999996
    vertex 55.04991608920903 27.768661373931607 19.999999999999996
    vertex 55.04991608920903 30.79454825567207 19.999999999999996
  endloop
endfacet
facet normal 1.24767557064271e-18 -3.3608285467825057e-16 1.0
  outer loop
    vertex 55.04991608920903 30.79454825567207 19.999999999999996
    vertex 55.04991608920903 27.768661373931607 19.999999999999996
    vertex 55.04991608920903 30.531243260497284 19.999999999999996
  endloop
endfacet
facet normal 1.24767557064271e-18 -3.3608285467825057e-16 1.0
  outer loop
    vertex 62.36240653182339 28.204759013936165 19.999999999999996
    vertex 57.04991608920902 30.531243260497284 19.999999999999996
    vertex 57.04991608920898 27.50535637875682 19.999999999999996
  endloop
endfacet
facet normal 1.24767557064271e-18 -3.3608285467825057e-16 1.0
  outer loop
    vertex 57.04991608920902 30.531243260497284 19.999999999999996
    vertex 62.36240653182339 28.204759013936165 19.999999999999996
    vertex 61.5792493785031 31.127541300438587 19.999999999999996
  endloop
endfacet
facet normal 1.24767557064271e-18 -3.3608285467825057e-16 1.0
  outer loop
    vertex 61.5792493785031 31.127541300438587 19.999999999999996
    vertex 62.36240653182339 28.204759013936165 19.999999999999996
    vertex 65.79991608920898 32.8757986942696 19.999999999999996
  endloop
endfacet
facet normal 1.24767557064271e-18 -3.3608285467825057e-16 1.0
  outer loop
    vertex 65.79991608920898 32.8757986942696 19.999999999999996
    vertex 62.36240653182339 28.204759013936165 19.999999999999996
    vertex 67.31285953007927 30.25530378570431 19.999999999999996
  endloop
endfacet
facet normal 1.24767557064271e-18 -3.3608285467825057e-16 1.0
  outer loop
    vertex 65.79991608920898 32.8757986942696 19.999999999999996
    vertex 67.31285953007927 30.25530378570431 19.999999999999996
    vertex 69.42428475997357 35.656874589732695 19.999999999999996
  endloop
endfacet
facet normal 1.24767557064271e-18 -3.3608285467825057e-16 1.0
  outer loop
    vertex 69.42428475997357 35.656874589732695 19.999999999999996
    vertex 67.31285953007927 30.25530378570431 19.999999999999996
    vertex 71.56390989315562 33.51724945655057 19.999999999999996
  endloop
endfacet
facet normal 1.24767557064271e-18 -3.3608285467825057e-16 1.0
  outer loop
    vertex 69.42428475997357 35.656874589732695 19.999999999999996
    vertex 71.56390989315562 33.51724945655057 19.999999999999996
    vertex 72.20536065543668 39.28124326049727 19.999999999999996
  endloop
endfacet
facet normal 1.24767557064271e-18 -3.3608285467825057e-16 1.0
  outer loop
    vertex 72.20536065543668 39.28124326049727 19.999999999999996
    vertex 71.56390989315562 33.51724945655057 19.999999999999996
    vertex 74.825855564002 37.768299819627046 19.999999999999996
  endloop
endfacet
facet normal 1.24767557064271e-18 -3.3608285467825057e-16 1.0
  outer loop
    vertex 72.20536065543668 39.28124326049727 19.999999999999996
    vertex 74.825855564002 37.768299819627046 19.999999999999996
    vertex 73.95361804926769 43.501909971203155 19.999999999999996
  endloop
endfacet
facet normal 1.24767557064271e-18 -3.3608285467825057e-16 1.0
  outer loop
    vertex 73.95361804926769 43.501909971203155 19.999999999999996
    vertex 74.825855564002 37.768299819627046 19.999999999999996
    vertex 74.54991608920902 48.03124326049728 19.999999999999996
  endloop
endfacet
facet normal 1.24767557064271e-18 -3.3608285467825057e-16 1.0
  outer loop
    vertex 37.22343184264792 42.718752817882866 19.999999999999996
    vertex 37.22343184264792 53.34373370311174 19.999999999999996
    vertex 36.524029207468544 48.03124326049728 19.999999999999996
  endloop
endfacet
facet normal 1.24767557064271e-18 -3.3608285467825057e-16 1.0
  outer loop
    vertex 37.22343184264792 53.34373370311174 19.999999999999996
    vertex 37.22343184264792 42.718752817882866 19.999999999999996
    vertex 39.27397661441605 37.76829981962703 19.999999999999996
  endloop
endfacet
facet normal 1.24767557064271e-18 -3.3608285467825057e-16 1.0
  outer loop
    vertex 37.22343184264792 53.34373370311174 19.999999999999996
    vertex 39.27397661441605 37.76829981962703 19.999999999999996
    vertex 39.27397661441601 58.29418670136752 20.000000000000007
  endloop
endfacet
facet normal 1.24767557064271e-18 -3.3608285467825057e-16 1.0
  outer loop
    vertex 39.27397661441601 58.29418670136752 20.000000000000007
    vertex 39.27397661441605 37.76829981962703 19.999999999999996
    vertex 39.549916089208985 48.03124326049728 19.999999999999996
  endloop
endfacet
facet normal 1.24767557064271e-18 -3.3608285467825057e-16 1.0
  outer loop
    vertex 39.27397661441601 58.29418670136752 20.000000000000007
    vertex 39.549916089208985 48.03124326049728 19.999999999999996
    vertex 40.146214129150316 52.560576549791406 19.999999999999996
  endloop
endfacet
facet normal 1.24767557064271e-18 -3.3608285467825057e-16 1.0
  outer loop
    vertex 39.27397661441601 58.29418670136752 20.000000000000007
    vertex 40.146214129150316 52.560576549791406 19.999999999999996
    vertex 42.53592228526232 62.54523706444396 20.000000000000007
  endloop
endfacet
facet normal 1.24767557064271e-18 -3.3608285467825057e-16 1.0
  outer loop
    vertex 42.53592228526232 62.54523706444396 20.000000000000007
    vertex 40.146214129150316 52.560576549791406 19.999999999999996
    vertex 41.89447152298133 56.781243260497305 20.000000000000007
  endloop
endfacet
facet normal 1.24767557064271e-18 -3.3608285467825057e-16 1.0
  outer loop
    vertex 42.53592228526232 62.54523706444396 20.000000000000007
    vertex 41.89447152298133 56.781243260497305 20.000000000000007
    vertex 44.67554741844443 60.40561193126185 20.000000000000007
  endloop
endfacet
facet normal 1.24767557064271e-18 -3.3608285467825057e-16 1.0
  outer loop
    vertex 42.53592228526232 62.54523706444396 20.000000000000007
    vertex 44.67554741844443 60.40561193126185 20.000000000000007
    vertex 46.78697264833878 65.80718273529025 20.000000000000007
  endloop
endfacet
facet normal 1.24767557064271e-18 -3.3608285467825057e-16 1.0
  outer loop
    vertex 46.78697264833878 65.80718273529025 20.000000000000007
    vertex 44.67554741844443 60.40561193126185 20.000000000000007
    vertex 48.29991608920903 63.18668782672496 20.000000000000007
  endloop
endfacet
facet normal 1.24767557064271e-18 -3.3608285467825057e-16 1.0
  outer loop
    vertex 46.78697264833878 65.80718273529025 20.000000000000007
    vertex 48.29991608920903 63.18668782672496 20.000000000000007
    vertex 51.73742564659461 67.85772750705837 20.000000000000007
  endloop
endfacet
facet normal 1.24767557064271e-18 -3.3608285467825057e-16 1.0
  outer loop
    vertex 51.73742564659461 67.85772750705837 20.000000000000007
    vertex 48.29991608920903 63.18668782672496 20.000000000000007
    vertex 52.520582799914905 64.93494522055597 20.000000000000007
  endloop
endfacet
facet normal 1.24767557064271e-18 -3.3608285467825057e-16 1.0
  outer loop
    vertex 51.73742564659461 67.85772750705837 20.000000000000007
    vertex 52.520582799914905 64.93494522055597 20.000000000000007
    vertex 57.04991608920902 68.55713014223771 20.000000000000007
  endloop
endfacet
facet normal 1.24767557064271e-18 -3.3608285467825057e-16 1.0
  outer loop
    vertex 57.04991608920902 68.55713014223771 20.000000000000007
    vertex 52.520582799914905 64.93494522055597 20.000000000000007
    vertex 57.04991608920902 65.53124326049728 20.000000000000007
  endloop
endfacet
facet normal 1.24767557064271e-18 -3.3608285467825057e-16 1.0
  outer loop
    vertex 57.04991608920902 68.55713014223771 20.000000000000007
    vertex 57.04991608920902 65.53124326049728 20.000000000000007
    vertex 61.5792493785031 64.93494522055597 20.000000000000007
  endloop
endfacet
facet normal 1.24767557064271e-18 -3.3608285467825057e-16 1.0
  outer loop
    vertex 57.04991608920902 68.55713014223771 20.000000000000007
    vertex 61.5792493785031 64.93494522055597 20.000000000000007
    vertex 62.36240653182343 67.85772750705837 20.000000000000007
  endloop
endfacet
facet normal 1.24767557064271e-18 -3.3608285467825057e-16 1.0
  outer loop
    vertex 62.36240653182343 67.85772750705837 20.000000000000007
    vertex 61.5792493785031 64.93494522055597 20.000000000000007
    vertex 65.79991608920902 63.18668782672496 20.000000000000007
  endloop
endfacet
facet normal 1.24767557064271e-18 -3.3608285467825057e-16 1.0
  outer loop
    vertex 62.36240653182343 67.85772750705837 20.000000000000007
    vertex 65.79991608920902 63.18668782672496 20.000000000000007
    vertex 67.31285953007922 65.80718273529028 20.000000000000007
  endloop
endfacet
facet normal 1.24767557064271e-18 -3.3608285467825057e-16 1.0
  outer loop
    vertex 67.31285953007922 65.80718273529028 20.000000000000007
    vertex 65.79991608920902 63.18668782672496 20.000000000000007
    vertex 69.42428475997357 60.40561193126185 20.000000000000007
  endloop
endfacet
facet normal 1.24767557064271e-18 -3.3608285467825057e-16 1.0
  outer loop
    vertex 67.31285953007922 65.80718273529028 20.000000000000007
    vertex 69.42428475997357 60.40561193126185 20.000000000000007
    vertex 71.56390989315568 62.54523706444394 20.000000000000007
  endloop
endfacet
facet normal 1.24767557064271e-18 -3.3608285467825057e-16 1.0
  outer loop
    vertex 71.56390989315568 62.54523706444394 20.000000000000007
    vertex 69.42428475997357 60.40561193126185 20.000000000000007
    vertex 72.20536065543668 56.78124326049728 20.000000000000007
  endloop
endfacet
facet normal 1.24767557064271e-18 -3.3608285467825057e-16 1.0
  outer loop
    vertex 71.56390989315568 62.54523706444394 20.000000000000007
    vertex 72.20536065543668 56.78124326049728 20.000000000000007
    vertex 74.825855564002 58.2941867013675 20.000000000000007
  endloop
endfacet
facet normal 1.24767557064271e-18 -3.3608285467825057e-16 1.0
  outer loop
    vertex 74.825855564002 58.2941867013675 20.000000000000007
    vertex 72.20536065543668 56.78124326049728 20.000000000000007
    vertex 73.95361804926769 52.560576549791406 19.999999999999996
  endloop
endfacet
facet normal 1.24767557064271e-18 -3.3608285467825057e-16 1.0
  outer loop
    vertex 74.825855564002 58.2941867013675 20.000000000000007
    vertex 73.95361804926769 52.560576549791406 19.999999999999996
    vertex 74.54991608920902 48.03124326049728 19.999999999999996
  endloop
endfacet
facet normal 1.24767557064271e-18 -3.3608285467825057e-16 1.0
  outer loop
    vertex 74.825855564002 58.2941867013675 20.000000000000007
    vertex 74.54991608920902 48.03124326049728 19.999999999999996
    vertex 74.825855564002 37.768299819627046 19.999999999999996
  endloop
endfacet
facet normal 1.24767557064271e-18 -3.3608285467825057e-16 1.0
  outer loop
    vertex 74.825855564002 58.2941867013675 20.000000000000007
    vertex 74.825855564002 37.768299819627046 19.999999999999996
    vertex 76.87640033577009 42.718752817882816 19.999999999999996
  endloop
endfacet
facet normal 1.24767557064271e-18 -3.3608285467825057e-16 1.0
  outer loop
    vertex 74.825855564002 58.2941867013675 20.000000000000007
    vertex 76.87640033577009 42.718752817882816 19.999999999999996
    vertex 76.87640033577009 53.34373370311174 19.999999999999996
  endloop
endfacet
facet normal 1.24767557064271e-18 -3.3608285467825057e-16 1.0
  outer loop
    vertex 76.87640033577009 53.34373370311174 19.999999999999996
    vertex 76.87640033577009 42.718752817882816 19.999999999999996
    vertex 77.57580297094945 48.03124326049728 19.999999999999996
  endloop
endfacet
endsolid Bike Drink Thing
