solid Untitled-55acddd8
facet normal 1.0 -0.0 -0.0
  outer loop
    vertex 19.999999999999996 10.0 0.0
    vertex 19.999999999999996 -9.999999999999993 100.0
    vertex 19.999999999999996 -10.0 0.0
  endloop
endfacet
facet normal 1.0 -0.0 -0.0
  outer loop
    vertex 19.999999999999996 -9.999999999999993 100.0
    vertex 19.999999999999996 10.0 0.0
    vertex 19.999999999999996 10.000000000000007 100.0
  endloop
endfacet
facet normal 1.5071074891257823e-32 -1.0 5.643106321607994e-17
  outer loop
    vertex 5.176380902050418 -10.0 -19.318516525781362
    vertex -5.176380902050411 -10.0 -19.318516525781362
    vertex 1.2246467991473529e-15 -10.0 -19.999999999999996
  endloop
endfacet
facet normal 1.5071074891257823e-32 -1.0 5.643106321607994e-17
  outer loop
    vertex -5.176380902050411 -10.0 -19.318516525781362
    vertex 5.176380902050418 -10.0 -19.318516525781362
    vertex 10.0 -10.0 -17.32050807568877
  endloop
endfacet
facet normal 1.5071074891257823e-32 -1.0 5.643106321607994e-17
  outer loop
    vertex -5.176380902050411 -10.0 -19.318516525781362
    vertex 10.0 -10.0 -17.32050807568877
    vertex -9.999999999999993 -10.0 -17.32050807568877
  endloop
endfacet
facet normal 1.5071074891257823e-32 -1.0 5.643106321607994e-17
  outer loop
    vertex -9.999999999999993 -10.0 -17.32050807568877
    vertex 10.0 -10.0 -17.32050807568877
    vertex -14.142135623730944 -10.0 -14.14213562373095
  endloop
endfacet
facet normal 1.5071074891257823e-32 -1.0 5.643106321607994e-17
  outer loop
    vertex -14.142135623730944 -10.0 -14.14213562373095
    vertex 10.0 -10.0 -17.32050807568877
    vertex 14.142135623730946 -10.0 -14.142135623730946
  endloop
endfacet
facet normal 1.5071074891257823e-32 -1.0 5.643106321607994e-17
  outer loop
    vertex -14.142135623730944 -10.0 -14.14213562373095
    vertex 14.142135623730946 -10.0 -14.142135623730946
    vertex -17.320508075688764 -10.0 -10.000000000000005
  endloop
endfacet
facet normal 1.5071074891257823e-32 -1.0 5.643106321607994e-17
  outer loop
    vertex -17.320508075688764 -10.0 -10.000000000000005
    vertex 14.142135623730946 -10.0 -14.142135623730946
    vertex 17.32050807568877 -10.0 -9.999999999999996
  endloop
endfacet
facet normal 1.5071074891257823e-32 -1.0 5.643106321607994e-17
  outer loop
    vertex -17.320508075688764 -10.0 -10.000000000000005
    vertex 17.32050807568877 -10.0 -9.999999999999996
    vertex -19.31851652578136 -10.0 -5.176380902050419
  endloop
endfacet
facet normal 1.5071074891257823e-32 -1.0 5.643106321607994e-17
  outer loop
    vertex -19.31851652578136 -10.0 -5.176380902050419
    vertex 17.32050807568877 -10.0 -9.999999999999996
    vertex 19.31851652578136 -10.0 -5.176380902050414
  endloop
endfacet
facet normal 1.5071074891257823e-32 -1.0 5.643106321607994e-17
  outer loop
    vertex -19.31851652578136 -10.0 -5.176380902050419
    vertex 19.31851652578136 -10.0 -5.176380902050414
    vertex -19.999999999999996 -10.0 0.0
  endloop
endfacet
facet normal 1.5071074891257823e-32 -1.0 5.643106321607994e-17
  outer loop
    vertex -19.999999999999996 -10.0 0.0
    vertex 19.31851652578136 -10.0 -5.176380902050414
    vertex 19.999999999999996 -10.0 0.0
  endloop
endfacet
facet normal 1.5071074891257823e-32 -1.0 5.643106321607994e-17
  outer loop
    vertex -19.999999999999996 -10.0 0.0
    vertex 19.999999999999996 -10.0 0.0
    vertex 19.999999999999996 -9.999999999999993 100.0
  endloop
endfacet
facet normal 1.5071074891257823e-32 -1.0 5.643106321607994e-17
  outer loop
    vertex -19.999999999999996 -10.0 0.0
    vertex 19.999999999999996 -9.999999999999993 100.0
    vertex -19.999999999999996 -9.999999999999993 100.0
  endloop
endfacet
facet normal 1.5071074891257823e-32 -1.0 5.643106321607994e-17
  outer loop
    vertex -19.999999999999996 -9.999999999999993 100.0
    vertex 19.999999999999996 -9.999999999999993 100.0
    vertex 19.318516525781355 -9.999999999999993 105.17638090205041
  endloop
endfacet
facet normal 1.5071074891257823e-32 -1.0 5.643106321607994e-17
  outer loop
    vertex -19.999999999999996 -9.999999999999993 100.0
    vertex 19.318516525781355 -9.999999999999993 105.17638090205041
    vertex -19.318516525781362 -9.999999999999993 105.17638090205041
  endloop
endfacet
facet normal 1.5071074891257823e-32 -1.0 5.643106321607994e-17
  outer loop
    vertex -19.318516525781362 -9.999999999999993 105.17638090205041
    vertex 19.318516525781355 -9.999999999999993 105.17638090205041
    vertex 17.32050807568876 -9.999999999999993 110.00000000000003
  endloop
endfacet
facet normal 1.5071074891257823e-32 -1.0 5.643106321607994e-17
  outer loop
    vertex -19.318516525781362 -9.999999999999993 105.17638090205041
    vertex 17.32050807568876 -9.999999999999993 110.00000000000003
    vertex -17.32050807568877 -9.999999999999993 110.00000000000003
  endloop
endfacet
facet normal 1.5071074891257823e-32 -1.0 5.643106321607994e-17
  outer loop
    vertex -17.32050807568877 -9.999999999999993 110.00000000000003
    vertex 17.32050807568876 -9.999999999999993 110.00000000000003
    vertex 14.142135623730944 -9.999999999999993 114.14213562373097
  endloop
endfacet
facet normal 1.5071074891257823e-32 -1.0 5.643106321607994e-17
  outer loop
    vertex -17.32050807568877 -9.999999999999993 110.00000000000003
    vertex 14.142135623730944 -9.999999999999993 114.14213562373097
    vertex -14.142135623730953 -9.999999999999993 114.14213562373097
  endloop
endfacet
facet normal 1.5071074891257823e-32 -1.0 5.643106321607994e-17
  outer loop
    vertex -14.142135623730953 -9.999999999999993 114.14213562373097
    vertex 14.142135623730944 -9.999999999999993 114.14213562373097
    vertex 9.999999999999982 -9.999999999999993 117.32050807568882
  endloop
endfacet
facet normal 1.5071074891257823e-32 -1.0 5.643106321607994e-17
  outer loop
    vertex -14.142135623730953 -9.999999999999993 114.14213562373097
    vertex 9.999999999999982 -9.999999999999993 117.32050807568882
    vertex -10.000000000000005 -9.999999999999993 117.32050807568882
  endloop
endfacet
facet normal 1.5071074891257823e-32 -1.0 5.643106321607994e-17
  outer loop
    vertex -10.000000000000005 -9.999999999999993 117.32050807568882
    vertex 9.999999999999982 -9.999999999999993 117.32050807568882
    vertex 5.176380902050405 -9.999999999999993 119.31851652578138
  endloop
endfacet
facet normal 1.5071074891257823e-32 -1.0 5.643106321607994e-17
  outer loop
    vertex -10.000000000000005 -9.999999999999993 117.32050807568882
    vertex 5.176380902050405 -9.999999999999993 119.31851652578138
    vertex -5.176380902050429 -9.999999999999993 119.31851652578138
  endloop
endfacet
facet normal 1.5071074891257823e-32 -1.0 5.643106321607994e-17
  outer loop
    vertex -5.176380902050429 -9.999999999999993 119.31851652578138
    vertex 5.176380902050405 -9.999999999999993 119.31851652578138
    vertex -3.67917502019921e-15 -9.999999999999993 120.00000000000003
  endloop
endfacet
facet normal -1.0 0.0 0.0
  outer loop
    vertex -19.999999999999996 -9.999999999999993 100.0
    vertex -19.999999999999996 10.0 0.0
    vertex -19.999999999999996 -10.0 0.0
  endloop
endfacet
facet normal -1.0 0.0 0.0
  outer loop
    vertex -19.999999999999996 10.0 0.0
    vertex -19.999999999999996 -9.999999999999993 100.0
    vertex -19.999999999999996 10.000000000000007 100.0
  endloop
endfacet
facet normal -4.358962943852985e-32 1.0 6.2114599053291e-17
  outer loop
    vertex -5.176380902050411 9.999999999999998 -19.318516525781362
    vertex 5.176380902050418 9.999999999999998 -19.318516525781362
    vertex 1.2246467991473529e-15 9.999999999999998 -19.999999999999996
  endloop
endfacet
facet normal -4.358962943852985e-32 1.0 6.2114599053291e-17
  outer loop
    vertex 5.176380902050418 9.999999999999998 -19.318516525781362
    vertex -5.176380902050411 9.999999999999998 -19.318516525781362
    vertex -9.999999999999993 9.999999999999998 -17.32050807568877
  endloop
endfacet
facet normal -4.358962943852985e-32 1.0 6.2114599053291e-17
  outer loop
    vertex 5.176380902050418 9.999999999999998 -19.318516525781362
    vertex -9.999999999999993 9.999999999999998 -17.32050807568877
    vertex 10.0 9.999999999999998 -17.32050807568877
  endloop
endfacet
facet normal -4.358962943852985e-32 1.0 6.2114599053291e-17
  outer loop
    vertex 10.0 9.999999999999998 -17.32050807568877
    vertex -9.999999999999993 9.999999999999998 -17.32050807568877
    vertex -14.142135623730944 9.999999999999998 -14.14213562373095
  endloop
endfacet
facet normal -4.358962943852985e-32 1.0 6.2114599053291e-17
  outer loop
    vertex 10.0 9.999999999999998 -17.32050807568877
    vertex -14.142135623730944 9.999999999999998 -14.14213562373095
    vertex 14.142135623730946 9.999999999999998 -14.142135623730946
  endloop
endfacet
facet normal -4.358962943852985e-32 1.0 6.2114599053291e-17
  outer loop
    vertex 14.142135623730946 9.999999999999998 -14.142135623730946
    vertex -14.142135623730944 9.999999999999998 -14.14213562373095
    vertex -17.320508075688764 9.999999999999998 -10.000000000000005
  endloop
endfacet
facet normal -4.358962943852985e-32 1.0 6.2114599053291e-17
  outer loop
    vertex 14.142135623730946 9.999999999999998 -14.142135623730946
    vertex -17.320508075688764 9.999999999999998 -10.000000000000005
    vertex 17.32050807568877 9.999999999999998 -9.999999999999996
  endloop
endfacet
facet normal -4.358962943852985e-32 1.0 6.2114599053291e-17
  outer loop
    vertex 17.32050807568877 9.999999999999998 -9.999999999999996
    vertex -17.320508075688764 9.999999999999998 -10.000000000000005
    vertex -19.31851652578136 9.999999999999998 -5.176380902050419
  endloop
endfacet
facet normal -4.358962943852985e-32 1.0 6.2114599053291e-17
  outer loop
    vertex 17.32050807568877 9.999999999999998 -9.999999999999996
    vertex -19.31851652578136 9.999999999999998 -5.176380902050419
    vertex 19.31851652578136 9.999999999999998 -5.176380902050414
  endloop
endfacet
facet normal -4.358962943852985e-32 1.0 6.2114599053291e-17
  outer loop
    vertex 19.31851652578136 9.999999999999998 -5.176380902050414
    vertex -19.31851652578136 9.999999999999998 -5.176380902050419
    vertex -19.999999999999996 10.0 0.0
  endloop
endfacet
facet normal -4.358962943852985e-32 1.0 6.2114599053291e-17
  outer loop
    vertex 19.31851652578136 9.999999999999998 -5.176380902050414
    vertex -19.999999999999996 10.0 0.0
    vertex 19.999999999999996 10.0 0.0
  endloop
endfacet
facet normal -4.358962943852985e-32 1.0 6.2114599053291e-17
  outer loop
    vertex 19.999999999999996 10.0 0.0
    vertex -19.999999999999996 10.0 0.0
    vertex -19.999999999999996 10.000000000000007 100.0
  endloop
endfacet
facet normal -4.358962943852985e-32 1.0 6.2114599053291e-17
  outer loop
    vertex 19.999999999999996 10.0 0.0
    vertex -19.999999999999996 10.000000000000007 100.0
    vertex 19.999999999999996 10.000000000000007 100.0
  endloop
endfacet
facet normal -4.358962943852985e-32 1.0 6.2114599053291e-17
  outer loop
    vertex 19.999999999999996 10.000000000000007 100.0
    vertex -19.999999999999996 10.000000000000007 100.0
    vertex -19.318516525781362 9.99999999999999 105.17638090205041
  endloop
endfacet
facet normal -4.358962943852985e-32 1.0 6.2114599053291e-17
  outer loop
    vertex 19.999999999999996 10.000000000000007 100.0
    vertex -19.318516525781362 9.99999999999999 105.17638090205041
    vertex 19.318516525781355 9.99999999999999 105.17638090205041
  endloop
endfacet
facet normal -4.358962943852985e-32 1.0 6.2114599053291e-17
  outer loop
    vertex 19.318516525781355 9.99999999999999 105.17638090205041
    vertex -19.318516525781362 9.99999999999999 105.17638090205041
    vertex -17.32050807568877 9.99999999999999 110.00000000000003
  endloop
endfacet
facet normal -4.358962943852985e-32 1.0 6.2114599053291e-17
  outer loop
    vertex 19.318516525781355 9.99999999999999 105.17638090205041
    vertex -17.32050807568877 9.99999999999999 110.00000000000003
    vertex 17.32050807568876 9.99999999999999 110.00000000000003
  endloop
endfacet
facet normal -4.358962943852985e-32 1.0 6.2114599053291e-17
  outer loop
    vertex 17.32050807568876 9.99999999999999 110.00000000000003
    vertex -17.32050807568877 9.99999999999999 110.00000000000003
    vertex -14.142135623730953 9.99999999999999 114.14213562373097
  endloop
endfacet
facet normal -4.358962943852985e-32 1.0 6.2114599053291e-17
  outer loop
    vertex 17.32050807568876 9.99999999999999 110.00000000000003
    vertex -14.142135623730953 9.99999999999999 114.14213562373097
    vertex 14.142135623730944 9.99999999999999 114.14213562373097
  endloop
endfacet
facet normal -4.358962943852985e-32 1.0 6.2114599053291e-17
  outer loop
    vertex 14.142135623730944 9.99999999999999 114.14213562373097
    vertex -14.142135623730953 9.99999999999999 114.14213562373097
    vertex -10.000000000000005 9.99999999999999 117.32050807568882
  endloop
endfacet
facet normal -4.358962943852985e-32 1.0 6.2114599053291e-17
  outer loop
    vertex 14.142135623730944 9.99999999999999 114.14213562373097
    vertex -10.000000000000005 9.99999999999999 117.32050807568882
    vertex 9.999999999999982 9.99999999999999 117.32050807568882
  endloop
endfacet
facet normal -4.358962943852985e-32 1.0 6.2114599053291e-17
  outer loop
    vertex 9.999999999999982 9.99999999999999 117.32050807568882
    vertex -10.000000000000005 9.99999999999999 117.32050807568882
    vertex -5.176380902050429 9.99999999999999 119.31851652578138
  endloop
endfacet
facet normal -4.358962943852985e-32 1.0 6.2114599053291e-17
  outer loop
    vertex 9.999999999999982 9.99999999999999 117.32050807568882
    vertex -5.176380902050429 9.99999999999999 119.31851652578138
    vertex 5.176380902050405 9.99999999999999 119.31851652578138
  endloop
endfacet
facet normal -4.358962943852985e-32 1.0 6.2114599053291e-17
  outer loop
    vertex 5.176380902050405 9.99999999999999 119.31851652578138
    vertex -5.176380902050429 9.99999999999999 119.31851652578138
    vertex -3.67917502019921e-15 9.99999999999999 120.00000000000003
  endloop
endfacet
facet normal 0.9914448613738103 -6.488385796266664e-19 0.13052619222005293
  outer loop
    vertex 19.999999999999996 10.000000000000007 100.0
    vertex 19.318516525781355 -9.999999999999993 105.17638090205041
    vertex 19.999999999999996 -9.999999999999993 100.0
  endloop
endfacet
facet normal 0.9659258262890684 -3.272186910765735e-19 0.2588190451025206
  outer loop
    vertex 19.318516525781355 -9.999999999999993 105.17638090205041
    vertex 19.999999999999996 10.000000000000007 100.0
    vertex 19.318516525781355 9.99999999999999 105.17638090205041
  endloop
endfacet
facet normal 0.9659258262890683 -3.272186910765738e-19 0.25881904510252035
  outer loop
    vertex 19.318516525781355 9.99999999999999 105.17638090205041
    vertex 17.32050807568876 -9.999999999999993 110.00000000000003
    vertex 19.318516525781355 -9.999999999999993 105.17638090205041
  endloop
endfacet
facet normal 0.8660254037844388 0.0 0.49999999999999967
  outer loop
    vertex 17.32050807568876 -9.999999999999993 110.00000000000003
    vertex 19.318516525781355 9.99999999999999 105.17638090205041
    vertex 17.32050807568876 9.99999999999999 110.00000000000003
  endloop
endfacet
facet normal 0.8660254037844388 0.0 0.49999999999999967
  outer loop
    vertex 17.32050807568876 9.99999999999999 110.00000000000003
    vertex 14.142135623730944 -9.999999999999993 114.14213562373097
    vertex 17.32050807568876 -9.999999999999993 110.00000000000003
  endloop
endfacet
facet normal 0.7071067811865489 0.0 0.707106781186546
  outer loop
    vertex 14.142135623730944 -9.999999999999993 114.14213562373097
    vertex 17.32050807568876 9.99999999999999 110.00000000000003
    vertex 14.142135623730944 9.99999999999999 114.14213562373097
  endloop
endfacet
facet normal 0.7071067811865489 0.0 0.707106781186546
  outer loop
    vertex 14.142135623730944 -9.999999999999993 114.14213562373097
    vertex 9.999999999999982 9.99999999999999 117.32050807568882
    vertex 9.999999999999982 -9.999999999999993 117.32050807568882
  endloop
endfacet
facet normal 0.4999999999999987 0.0 0.8660254037844393
  outer loop
    vertex 9.999999999999982 9.99999999999999 117.32050807568882
    vertex 14.142135623730944 -9.999999999999993 114.14213562373097
    vertex 14.142135623730944 9.99999999999999 114.14213562373097
  endloop
endfacet
facet normal 0.4999999999999987 0.0 0.8660254037844393
  outer loop
    vertex 9.999999999999982 -9.999999999999993 117.32050807568882
    vertex 5.176380902050405 9.99999999999999 119.31851652578138
    vertex 5.176380902050405 -9.999999999999993 119.31851652578138
  endloop
endfacet
facet normal 0.2588190451025191 0.0 0.9659258262890686
  outer loop
    vertex 5.176380902050405 9.99999999999999 119.31851652578138
    vertex 9.999999999999982 -9.999999999999993 117.32050807568882
    vertex 9.999999999999982 9.99999999999999 117.32050807568882
  endloop
endfacet
facet normal 0.2588190451025191 0.0 0.9659258262890686
  outer loop
    vertex 5.176380902050405 -9.999999999999993 119.31851652578138
    vertex -3.67917502019921e-15 9.99999999999999 120.00000000000003
    vertex -3.67917502019921e-15 -9.999999999999993 120.00000000000003
  endloop
endfacet
facet normal 2.1386663749552583e-16 0.0 1.0
  outer loop
    vertex -3.67917502019921e-15 9.99999999999999 120.00000000000003
    vertex 5.176380902050405 -9.999999999999993 119.31851652578138
    vertex 5.176380902050405 9.99999999999999 119.31851652578138
  endloop
endfacet
facet normal 2.1386663749552583e-16 0.0 1.0
  outer loop
    vertex -3.67917502019921e-15 -9.999999999999993 120.00000000000003
    vertex -5.176380902050429 9.99999999999999 119.31851652578138
    vertex -5.176380902050429 -9.999999999999993 119.31851652578138
  endloop
endfacet
facet normal -0.25881904510251896 0.0 0.9659258262890686
  outer loop
    vertex -5.176380902050429 9.99999999999999 119.31851652578138
    vertex -3.67917502019921e-15 -9.999999999999993 120.00000000000003
    vertex -3.67917502019921e-15 9.99999999999999 120.00000000000003
  endloop
endfacet
facet normal -0.25881904510251896 0.0 0.9659258262890686
  outer loop
    vertex -5.176380902050429 -9.999999999999993 119.31851652578138
    vertex -10.000000000000005 9.99999999999999 117.32050807568882
    vertex -10.000000000000005 -9.999999999999993 117.32050807568882
  endloop
endfacet
facet normal -0.4999999999999997 0.0 0.8660254037844389
  outer loop
    vertex -10.000000000000005 9.99999999999999 117.32050807568882
    vertex -5.176380902050429 -9.999999999999993 119.31851652578138
    vertex -5.176380902050429 9.99999999999999 119.31851652578138
  endloop
endfacet
facet normal -0.4999999999999997 0.0 0.8660254037844389
  outer loop
    vertex -10.000000000000005 -9.999999999999993 117.32050807568882
    vertex -14.142135623730953 9.99999999999999 114.14213562373097
    vertex -14.142135623730953 -9.999999999999993 114.14213562373097
  endloop
endfacet
facet normal -0.7071067811865496 0.0 0.7071067811865455
  outer loop
    vertex -14.142135623730953 9.99999999999999 114.14213562373097
    vertex -10.000000000000005 -9.999999999999993 117.32050807568882
    vertex -10.000000000000005 9.99999999999999 117.32050807568882
  endloop
endfacet
facet normal -0.7071067811865496 0.0 0.7071067811865455
  outer loop
    vertex -14.142135623730953 9.99999999999999 114.14213562373097
    vertex -17.32050807568877 -9.999999999999993 110.00000000000003
    vertex -14.142135623730953 -9.999999999999993 114.14213562373097
  endloop
endfacet
facet normal -0.8660254037844392 0.0 0.4999999999999994
  outer loop
    vertex -17.32050807568877 -9.999999999999993 110.00000000000003
    vertex -14.142135623730953 9.99999999999999 114.14213562373097
    vertex -17.32050807568877 9.99999999999999 110.00000000000003
  endloop
endfacet
facet normal -0.8660254037844392 0.0 0.4999999999999994
  outer loop
    vertex -17.32050807568877 9.99999999999999 110.00000000000003
    vertex -19.318516525781362 -9.999999999999993 105.17638090205041
    vertex -17.32050807568877 -9.999999999999993 110.00000000000003
  endloop
endfacet
facet normal -0.9659258262890685 -1.0267025646773793e-18 0.25881904510251946
  outer loop
    vertex -19.318516525781362 -9.999999999999993 105.17638090205041
    vertex -17.32050807568877 9.99999999999999 110.00000000000003
    vertex -19.318516525781362 9.99999999999999 105.17638090205041
  endloop
endfacet
facet normal -0.9659258262890688 -1.0267025646773806e-18 0.2588190451025194
  outer loop
    vertex -19.318516525781362 9.99999999999999 105.17638090205041
    vertex -19.999999999999996 -9.999999999999993 100.0
    vertex -19.318516525781362 -9.999999999999993 105.17638090205041
  endloop
endfacet
facet normal -0.9914448613738105 -2.0358379638174004e-18 0.13052619222005185
  outer loop
    vertex -19.999999999999996 -9.999999999999993 100.0
    vertex -19.318516525781362 9.99999999999999 105.17638090205041
    vertex -19.999999999999996 10.000000000000007 100.0
  endloop
endfacet
facet normal 0.9659258262890683 7.367103918531648e-19 -0.2588190451025209
  outer loop
    vertex 19.31851652578136 9.999999999999998 -5.176380902050414
    vertex 19.999999999999996 -10.0 0.0
    vertex 19.31851652578136 -10.0 -5.176380902050414
  endloop
endfacet
facet normal 0.9914448613738103 1.460815464647013e-18 -0.1305261922200523
  outer loop
    vertex 19.999999999999996 -10.0 0.0
    vertex 19.31851652578136 9.999999999999998 -5.176380902050414
    vertex 19.999999999999996 10.0 0.0
  endloop
endfacet
facet normal -0.9914448613738103 1.4608154646470112e-18 -0.13052619222005213
  outer loop
    vertex -19.999999999999996 10.0 0.0
    vertex -19.31851652578136 -10.0 -5.176380902050419
    vertex -19.999999999999996 -10.0 0.0
  endloop
endfacet
facet normal -0.9659258262890682 7.367103918531639e-19 -0.2588190451025212
  outer loop
    vertex -19.31851652578136 -10.0 -5.176380902050419
    vertex -19.999999999999996 10.0 0.0
    vertex -19.31851652578136 9.999999999999998 -5.176380902050419
  endloop
endfacet
facet normal -0.9659258262890682 7.367103918531639e-19 -0.25881904510252113
  outer loop
    vertex -19.31851652578136 9.999999999999998 -5.176380902050419
    vertex -17.320508075688764 -10.0 -10.000000000000005
    vertex -19.31851652578136 -10.0 -5.176380902050419
  endloop
endfacet
facet normal -0.8660254037844385 0.0 -0.5000000000000004
  outer loop
    vertex -17.320508075688764 -10.0 -10.000000000000005
    vertex -19.31851652578136 9.999999999999998 -5.176380902050419
    vertex -17.320508075688764 9.999999999999998 -10.000000000000005
  endloop
endfacet
facet normal -0.8660254037844385 0.0 -0.5000000000000004
  outer loop
    vertex -17.320508075688764 9.999999999999998 -10.000000000000005
    vertex -14.142135623730944 -10.0 -14.14213562373095
    vertex -17.320508075688764 -10.0 -10.000000000000005
  endloop
endfacet
facet normal -0.7071067811865475 0.0 -0.7071067811865477
  outer loop
    vertex -14.142135623730944 -10.0 -14.14213562373095
    vertex -17.320508075688764 9.999999999999998 -10.000000000000005
    vertex -14.142135623730944 9.999999999999998 -14.14213562373095
  endloop
endfacet
facet normal -0.4999999999999999 0.0 -0.8660254037844387
  outer loop
    vertex -9.999999999999993 9.999999999999998 -17.32050807568877
    vertex -14.142135623730944 -10.0 -14.14213562373095
    vertex -14.142135623730944 9.999999999999998 -14.14213562373095
  endloop
endfacet
facet normal -0.7071067811865475 0.0 -0.7071067811865477
  outer loop
    vertex -14.142135623730944 -10.0 -14.14213562373095
    vertex -9.999999999999993 9.999999999999998 -17.32050807568877
    vertex -9.999999999999993 -10.0 -17.32050807568877
  endloop
endfacet
facet normal -0.25881904510252074 0.0 -0.9659258262890682
  outer loop
    vertex -5.176380902050411 9.999999999999998 -19.318516525781362
    vertex -9.999999999999993 -10.0 -17.32050807568877
    vertex -9.999999999999993 9.999999999999998 -17.32050807568877
  endloop
endfacet
facet normal -0.4999999999999999 0.0 -0.8660254037844387
  outer loop
    vertex -9.999999999999993 -10.0 -17.32050807568877
    vertex -5.176380902050411 9.999999999999998 -19.318516525781362
    vertex -5.176380902050411 -10.0 -19.318516525781362
  endloop
endfacet
facet normal -4.455554947823453e-17 0.0 -1.0
  outer loop
    vertex 1.2246467991473529e-15 9.999999999999998 -19.999999999999996
    vertex -5.176380902050411 -10.0 -19.318516525781362
    vertex -5.176380902050411 9.999999999999998 -19.318516525781362
  endloop
endfacet
facet normal -0.25881904510252074 0.0 -0.9659258262890682
  outer loop
    vertex -5.176380902050411 -10.0 -19.318516525781362
    vertex 1.2246467991473529e-15 9.999999999999998 -19.999999999999996
    vertex 1.2246467991473529e-15 -10.0 -19.999999999999996
  endloop
endfacet
facet normal 0.25881904510252085 0.0 -0.9659258262890682
  outer loop
    vertex 5.176380902050418 9.999999999999998 -19.318516525781362
    vertex 1.2246467991473529e-15 -10.0 -19.999999999999996
    vertex 1.2246467991473529e-15 9.999999999999998 -19.999999999999996
  endloop
endfacet
facet normal -4.455554947823453e-17 0.0 -1.0
  outer loop
    vertex 1.2246467991473529e-15 -10.0 -19.999999999999996
    vertex 5.176380902050418 9.999999999999998 -19.318516525781362
    vertex 5.176380902050418 -10.0 -19.318516525781362
  endloop
endfacet
facet normal 0.5000000000000002 0.0 -0.8660254037844384
  outer loop
    vertex 10.0 9.999999999999998 -17.32050807568877
    vertex 5.176380902050418 -10.0 -19.318516525781362
    vertex 5.176380902050418 9.999999999999998 -19.318516525781362
  endloop
endfacet
facet normal 0.25881904510252085 0.0 -0.9659258262890682
  outer loop
    vertex 5.176380902050418 -10.0 -19.318516525781362
    vertex 10.0 9.999999999999998 -17.32050807568877
    vertex 10.0 -10.0 -17.32050807568877
  endloop
endfacet
facet normal 0.7071067811865477 0.0 -0.7071067811865475
  outer loop
    vertex 14.142135623730946 9.999999999999998 -14.142135623730946
    vertex 10.0 -10.0 -17.32050807568877
    vertex 10.0 9.999999999999998 -17.32050807568877
  endloop
endfacet
facet normal 0.5000000000000002 0.0 -0.8660254037844384
  outer loop
    vertex 10.0 -10.0 -17.32050807568877
    vertex 14.142135623730946 9.999999999999998 -14.142135623730946
    vertex 14.142135623730946 -10.0 -14.142135623730946
  endloop
endfacet
facet normal 0.7071067811865477 0.0 -0.7071067811865475
  outer loop
    vertex 14.142135623730946 9.999999999999998 -14.142135623730946
    vertex 17.32050807568877 -10.0 -9.999999999999996
    vertex 14.142135623730946 -10.0 -14.142135623730946
  endloop
endfacet
facet normal 0.8660254037844387 0.0 -0.49999999999999994
  outer loop
    vertex 17.32050807568877 -10.0 -9.999999999999996
    vertex 14.142135623730946 9.999999999999998 -14.142135623730946
    vertex 17.32050807568877 9.999999999999998 -9.999999999999996
  endloop
endfacet
facet normal 0.8660254037844387 0.0 -0.49999999999999994
  outer loop
    vertex 17.32050807568877 9.999999999999998 -9.999999999999996
    vertex 19.31851652578136 -10.0 -5.176380902050414
    vertex 17.32050807568877 -10.0 -9.999999999999996
  endloop
endfacet
facet normal 0.9659258262890682 7.367103918531647e-19 -0.25881904510252085
  outer loop
    vertex 19.31851652578136 -10.0 -5.176380902050414
    vertex 17.32050807568877 9.999999999999998 -9.999999999999996
    vertex 19.31851652578136 9.999999999999998 -5.176380902050414
  endloop
endfacet
endsolid Untitled-55acddd8
